PathFileType	4	(X/Y/Z)	E:\Qualisys_Data\Carbon_Farble_Plate\Data\Amateur_Runner\S1\T3\S1T3V23_c3d.trc
DataRate	CameraRate	NumFrames	NumMarkers	Units	OrigDataRate	OrigDataStartFrame	OrigNumFrames
200.000000	200.000000	4	39	mm	200.000000	74	296
Frame#	Time	LSHO			RSHO			LICST			RICST			LASIS			LHEEL			RASIS			LTROC			RTROC			SACR			LTH1			LSK4			LTH2			LTH3			RHM5			LSK2			LTH4			RTH1			LTOE			RTH2			RTH3			RTH4			LLEP			RLEP			LSK1			LSK3			RSK1			LHM5			RSK2			LFT1			RSK3			RSK4			LLME			RLME			RTOE			RHEEL			RFT1			RFT2			LFT2			
		X1	Y1	Z1	X2	Y2	Z2	X3	Y3	Z3	X4	Y4	Z4	X5	Y5	Z5	X6	Y6	Z6	X7	Y7	Z7	X8	Y8	Z8	X9	Y9	Z9	X10	Y10	Z10	X11	Y11	Z11	X12	Y12	Z12	X13	Y13	Z13	X14	Y14	Z14	X15	Y15	Z15	X16	Y16	Z16	X17	Y17	Z17	X18	Y18	Z18	X19	Y19	Z19	X20	Y20	Z20	X21	Y21	Z21	X22	Y22	Z22	X23	Y23	Z23	X24	Y24	Z24	X25	Y25	Z25	X26	Y26	Z26	X27	Y27	Z27	X28	Y28	Z28	X29	Y29	Z29	X30	Y30	Z30	X31	Y31	Z31	X32	Y32	Z32	X33	Y33	Z33	X34	Y34	Z34	X35	Y35	Z35	X36	Y36	Z36	X37	Y37	Z37	X38	Y38	Z38	X39	Y39	Z39	

75	0.37	-1533.733154296875	1535.558349609375	-568.8187255859375	-1482.54052734375	1544.947998046875	-252.6007232666016	-1514.038208007812	1073.015747070312	-521.8945922851562	-1515.193115234375	1088.7724609375	-226.1682586669922	-1468.898559570312	1036.773315429688	-492.3399353027344	-1301.83837890625	113.1421890258789	-412.7379150390625	-1479.74462890625	1038.5556640625	-232.1163635253906	-1559.917846679688	946.6182250976562	-544.23291015625	-1602.427612304688	963.7351684570312	-202.5673522949219	-1633.90576171875	1095.025756835938	-372.2903747558594	-1395.61572265625	825.6669311523438	-505.9147338867188	-1349.6064453125	279.5458984375	-447.0211181640625	-1464.1591796875	794.442626953125	-546.27490234375	-1362.367797851562	727.7625732421875	-488.8747253417969	-2086.364501953125	268.8412475585938	-256.7461547851562	-1368.892578125	373.5983581542969	-488.2603149414062	-1435.766357421875	699.8599853515625	-523.0579223632812	-1510.983520507812	807.05810546875	-229.9953765869141	-1071.980834960938	218.7238464355469	-421.0595703125	-1582.315185546875	822.9938354492188	-201.1153717041016	-1536.674682617188	710.3944091796875	-239.48291015625	-1611.179809570312	728.53955078125	-216.410888671875	-1347.635375976562	587.6402587890625	-473.3027038574219	-1648.255737304688	560.2536010742188	-256.4949340820312	-1286.984619140625	388.5131530761719	-479.8041076660156	-1272.721801757812	288.2795715332031	-472.703125	-1821.362182617188	482.9936828613281	-244.2797698974609	-1122.360961914062	161.2421264648438	-475.7727355957031	-1852.0380859375	556.9756469726562	-261.8500061035156	-1281.278686523438	95.04442596435548	-381.4283752441406	-1912.646484375	441.7164001464844	-258.1452941894531	-1939.737670898438	512.900146484375	-285.9039306640625	-1265.963256835938	159.156005859375	-460.7821960449219	-2046.776611328125	417.507080078125	-265.3260803222656	-2050.578369140625	219.7847137451172	-322.7714538574219	-2094.7734375	467.3539428710938	-314.7357482910156	-2114.50146484375	453.0899353027344	-349.7015686035156	-2122.35498046875	460.3743286132812	-298.2357788085938	-1281.021362304688	84.66748809814453	-430.8340759277344
76	0.375	-1511.521606445312	1532.919067382812	-569.6809692382812	-1461.391723632812	1543.121826171875	-253.3777923583984	-1490.57470703125	1071.0947265625	-520.9539184570312	-1494.46630859375	1086.35400390625	-225.6658172607422	-1448.1279296875	1034.875122070312	-491.882568359375	-1284.088500976562	109.565299987793	-410.3702087402344	-1459.1376953125	1036.490966796875	-231.4553680419922	-1538.860717773438	944.1292114257812	-542.912841796875	-1581.040405273438	960.0248413085938	-201.0390625	-1613.507446289062	1092.365112304688	-371.8447875976562	-1376.821655273438	821.6912231445312	-505.7245483398438	-1331.697387695312	275.3148193359375	-445.4301147460938	-1444.627075195312	791.024169921875	-546.7348022460938	-1344.5302734375	723.8199462890625	-490.6071472167969	-2064.220947265625	279.8825988769531	-254.5357971191406	-1349.962036132812	370.1636962890625	-486.7285766601562	-1418.25146484375	696.4375	-522.9487915039062	-1487.11328125	804.291748046875	-228.1317138671875	-1054.820678710938	215.1766357421875	-420.1753234863281	-1558.850463867188	818.984375	-199.7490692138672	-1511.6201171875	707.6547241210938	-238.0825653076172	-1586.130004882812	724.7064819335938	-215.1276245117188	-1329.75341796875	584.7046508789062	-472.281005859375	-1618.726196289062	555.9373168945312	-254.7150268554688	-1268.342895507812	384.9997253417969	-477.821044921875	-1254.55419921875	284.7906188964844	-470.305908203125	-1795.086669921875	484.1382751464844	-243.84228515625	-1105.459838867188	158.3226318359375	-474.8297424316406	-1822.440795898438	558.7191772460938	-260.9986267089844	-1263.441162109375	91.4267807006836	-379.2429809570312	-1886.260009765625	445.0906066894531	-257.5703125	-1912.558227539062	517.8930053710938	-285.8080139160156	-1248.295776367188	155.1955871582031	-458.58447265625	-2020.798706054688	426.7902526855469	-264.742919921875	-2030.507934570312	229.0784759521484	-321.0071716308594	-2067.978515625	477.3049926757812	-315.0256958007812	-2088.6318359375	463.4769897460938	-349.3673400878906	-2095.251708984375	471.4368286132812	-297.9796142578125	-1263.576171875	80.9930648803711	-428.7938537597656
77	0.38	-1489.84423828125	1529.25830078125	-570.837646484375	-1440.338134765625	1541.020263671875	-254.0121154785156	-1472.0556640625	1068.07861328125	-520.893310546875	-1473.863037109375	1083.678466796875	-224.7922668457031	-1428.611450195312	1031.308959960938	-492.1103210449219	-1268.222290039062	105.2046432495117	-408.1596374511719	-1437.62353515625	1033.825317382812	-230.7395629882812	-1518.584350585938	941.4927978515624	-542.64697265625	-1559.145263671875	956.379150390625	-199.3603973388672	-1592.473388671875	1089.087890625	-370.9685363769531	-1357.012084960938	818.941650390625	-506.0567932128906	-1315.322265625	271.5335388183594	-444.5660400390625	-1425.7255859375	788.50634765625	-546.6549682617188	-1324.574340820312	721.3268432617188	-491.7347717285156	-2041.317993164062	289.9288635253906	-252.2214050292969	-1332.421630859375	365.8604431152344	-485.7933654785156	-1398.749389648438	693.4522705078125	-520.820556640625	-1462.815795898438	802.35693359375	-227.342529296875	-1038.7919921875	211.1358184814453	-418.5653991699219	-1534.680419921875	815.5758056640625	-198.6676025390625	-1485.737182617188	704.1580810546875	-236.1345367431641	-1560.483764648438	719.9849243164062	-213.8602905273438	-1311.245483398438	581.6233520507812	-470.9251098632812	-1591.299926757812	551.697021484375	-253.8841552734375	-1250.783081054688	380.4873657226562	-475.7537536621094	-1237.403442382812	280.0388793945312	-468.0660705566406	-1767.066040039062	484.43603515625	-242.1055145263672	-1090.064697265625	153.6390533447266	-472.3786315917969	-1792.350708007812	560.0311279296875	-260.7595825195312	-1247.332397460938	86.9554214477539	-377.0912475585938	-1860.484741210938	448.6617431640625	-257.6343383789062	-1883.556030273438	522.1101684570312	-285.0757141113281	-1231.912719726562	151.0154113769531	-456.5899963378906	-1992.515014648438	436.4888305664062	-262.7636413574219	-2009.898803710938	238.0864105224609	-318.84423828125	-2040.490234375	486.9183654785156	-314.5797729492188	-2061.8115234375	473.5311889648438	-348.5641784667969	-2067.78173828125	482.2306518554688	-297.2856140136719	-1247.65283203125	76.55662536621094	-426.5574951171875
78	0.385	-1468.054931640625	1525.927978515625	-571.6203002929688	-1418.842041015625	1538.780883789062	-254.5444030761719	-1451.498168945312	1065.87890625	-520.2172241210938	-1453.577270507812	1080.672485351562	-223.7048187255859	-1407.807861328125	1030.659545898438	-490.8139953613281	-1254.702880859375	100.6105651855469	-406.7967224121094	-1416.83203125	1031.422485351562	-230.1891937255859	-1498.552001953125	939.2498779296876	-541.875	-1536.958984375	952.092041015625	-198.4446105957031	-1571.4384765625	1085.85595703125	-369.9076232910156	-1336.396606445312	817.1383056640625	-506.4986267089844	-1299.434692382812	267.624755859375	-443.1665954589844	-1405.709106445312	786.0533447265625	-545.9486083984375	-1304.619384765625	719.0994873046875	-492.2442016601562	-2017.176635742188	300.0989990234375	-250.1753082275391	-1315.831909179688	361.8511352539062	-484.9097595214844	-1379.03515625	691.375244140625	-518.9991455078125	-1439.0380859375	799.44580078125	-226.0466613769531	-1024.255249023438	206.3384704589844	-417.1642150878906	-1511.538696289062	812.0431518554688	-197.5427093505859	-1459.773193359375	701.0155639648438	-234.1515655517578	-1534.8193359375	715.6947631835938	-213.0518188476562	-1292.033447265625	578.2896728515625	-469.6386413574219	-1562.493408203125	547.3995361328125	-251.7145080566406	-1234.187866210938	375.8812866210938	-473.9858703613281	-1222.090087890625	275.5221557617188	-466.1374206542969	-1738.60595703125	484.5191650390625	-240.9594268798828	-1075.544677734375	148.8388977050781	-471.0742797851562	-1761.8232421875	560.7742309570312	-259.7734985351562	-1232.755004882812	82.18582153320312	-375.0055236816406	-1833.626098632812	451.5922546386719	-256.2858276367188	-1854.461181640625	525.5094604492188	-284.5639343261719	-1217.45263671875	145.8983612060547	-454.6529235839844	-1966.465576171875	443.3510131835938	-263.1370239257812	-1987.197143554688	246.1444091796875	-315.9812622070312	-2011.2373046875	495.7804260253906	-316.1483459472656	-2033.882690429688	482.7061157226562	-348.7223510742188	-2038.618774414062	491.7722473144531	-297.0506286621094	-1233.61376953125	71.68294525146484	-424.3406677246094
